<svg viewBox="0 0 100 100" fill="none" xmlns="http://www.w3.org/2000/svg">
  <rect width="100" height="100" rx="14" fill="#691a1a"/>
  <!-- Birla Sunburst shape -->
  <circle cx="50" cy="55" r="16" fill="#f8c300"/>
  <path d="M50 15L53 35L70 25L57 41L82 41L59 49L85 60L57 57L75 75L53 62L60 85L48 62L40 85L47 62L25 75L43 57L15 60L41 49L18 41L43 41L30 25L47 35L50 15Z" fill="#ff4e00"/>
  <path d="M20 80C30 75 40 78 50 78C60 78 70 75 80 80" stroke="#f8c300" stroke-width="4" stroke-linecap="round"/>
</svg>
